<?xml version="1.0" encoding="UTF-8"?><svg id="Layer_1" xmlns="http://www.w3.org/2000/svg" viewBox="0 0 396 396"><defs><style>.cls-1{fill:#fff;}</style></defs><polygon class="cls-1" points="83.74 327.79 74.87 313.36 71.22 313.36 71.22 336.92 74.67 336.92 74.62 319.62 82.18 331.84 84.94 331.84 92.22 319.83 92.17 336.92 95.86 336.92 95.86 313.36 92.28 313.36 83.74 327.79"/><path class="cls-1" d="M115.87,313.36l-9.16,23.56h4.14l2.09-5.62h9.98l2.17,5.62h4.26l-9.39-23.56h-4.09ZM113.92,328.05l3.92-10.25,4.07,10.25h-7.99Z"/><path class="cls-1" d="M154.28,325.66c.9-.58,1.6-1.31,2.1-2.21s.75-1.93.75-3.1c0-1.44-.33-2.68-.98-3.72-.66-1.04-1.58-1.85-2.78-2.41-1.2-.57-2.61-.85-4.25-.85h-8.9v23.56h3.77v-9.49h3.21l6.51,9.49h4.56l-7.1-10.08c1.18-.21,2.22-.61,3.11-1.19ZM143.98,324.29v-7.71h4.78c1.52,0,2.65.35,3.42,1.03.76.69,1.15,1.66,1.15,2.9s-.42,2.14-1.27,2.79c-.85.65-2.03.98-3.56.98h-4.51Z"/><polygon class="cls-1" points="188.17 313.36 183.53 313.36 173.78 325.43 173.78 313.36 170.01 313.36 170.01 336.92 173.78 336.92 173.78 330.81 177.08 326.91 184.6 336.92 189.47 336.92 179.55 324.03 188.17 313.36"/><polygon class="cls-1" points="204.61 326.2 214.51 326.2 214.51 323.06 204.61 323.06 204.61 316.69 216.08 316.69 216.08 313.36 200.84 313.36 200.84 336.92 216.18 336.92 216.18 333.56 204.61 333.56 204.61 326.2"/><polygon class="cls-1" points="226.74 316.83 233.38 316.83 233.38 336.92 237.15 336.92 237.15 316.83 243.78 316.83 243.78 313.36 226.74 313.36 226.74 316.83"/><rect class="cls-1" x="255.19" y="313.36" width="3.77" height="23.56"/><polygon class="cls-1" points="288.04 330.48 276.14 313.36 272.54 313.36 272.54 336.92 276.22 336.92 276.22 319.61 288.11 336.92 291.71 336.92 291.71 313.36 288.04 313.36 288.04 330.48"/><path class="cls-1" d="M316.04,327.55h5.35v5.69c-.45.22-1.04.42-1.77.6-.73.17-1.55.26-2.46.26-1.85,0-3.49-.34-4.91-1.03-1.42-.69-2.53-1.7-3.34-3.04-.81-1.34-1.21-2.95-1.21-4.85,0-1.37.21-2.6.63-3.69.42-1.09,1.02-2.02,1.81-2.78.79-.77,1.73-1.36,2.84-1.77,1.11-.41,2.35-.61,3.72-.61,1.05,0,2.08.13,3.07.4.99.27,1.92.68,2.77,1.23l1.65-2.96c-.76-.53-1.57-.95-2.42-1.26-.85-.31-1.71-.54-2.58-.67-.88-.13-1.74-.2-2.59-.2-1.84,0-3.54.29-5.09.88-1.55.58-2.91,1.42-4.06,2.5-1.15,1.08-2.04,2.38-2.68,3.89s-.96,3.19-.96,5.06.33,3.56.99,5.07c.66,1.5,1.59,2.79,2.79,3.86,1.19,1.07,2.59,1.89,4.18,2.47,1.59.57,3.33.86,5.2.86.76,0,1.64-.08,2.62-.24.98-.16,1.94-.39,2.86-.69.93-.3,1.7-.66,2.31-1.08v-11.01h-8.73v3.13Z"/><path class="cls-1" d="M352.15,297.23l-5.52-12.96-32.75-76.88-6.95-16.3-5.52-12.95-5.52,12.96-6.13,14.4c-7.61-14.2-16.01-29.88-24.19-45.14l-16.2-30.24-2.88-5.38-5.33,2.97-7.92,4.42c-4.66-8.71-9.63-17.96-14.64-27.31-8.21-15.31-16.54-30.86-23.92-44.63l-5.29-9.88-5.29,9.88c-10.23,19.08-24.22,45.19-38.48,71.8-13.96,26.05-28.19,52.6-39.4,73.51l-6.14-14.4-5.52-12.96-5.52,12.96-6.94,16.3-32.75,76.88-5.52,12.96-3.56,8.35h315.42l-3.56-8.35ZM49.36,299.59l5.52-12.96,32.75-76.88,6.94-16.3,6.95,16.31,4.09,9.59c22.02-41.1,61.7-115.11,83.79-156.34,12.82,23.95,28.54,53.25,41.43,77.32l13.25-7.39c13.5,25.19,30.07,56.14,43.54,81.26l2.76,5.15,4.09-9.6,6.94-16.3,6.95,16.3,32.75,76.88,5.52,12.96H49.36Z"/><path class="cls-1" d="M94.52,226.22l-25.73,60.41h11.34l4.34-10.37h19.84l4.34,10.37h11.73l-25.73-60.41h-.13ZM97.89,260.97l2.53,5.96h-12.06l2.53-5.96c.69-1.6,1.32-3.15,1.88-4.67.56-1.51,1.08-3.24,1.56-5.19.52,1.99,1.07,3.73,1.65,5.22s1.22,3.04,1.91,4.63Z"/><polygon class="cls-1" points="134.4 228.29 122.34 228.29 122.34 286.63 151.9 286.63 151.9 276.13 134.4 276.13 134.4 228.29"/><path class="cls-1" d="M218.98,266.8c0,1.99-.4,3.73-1.2,5.22-.8,1.49-1.91,2.65-3.34,3.47-1.43.82-3.05,1.23-4.86,1.23s-3.44-.42-4.86-1.26-2.54-2.04-3.34-3.6c-.8-1.56-1.2-3.37-1.2-5.44v-38.12h-12.06v38.7c0,4.37.92,8.11,2.75,11.25,1.84,3.13,4.35,5.54,7.55,7.23,3.2,1.69,6.85,2.53,10.95,2.53s7.88-.84,11.05-2.53c3.18-1.69,5.67-4.12,7.49-7.29s2.72-6.97,2.72-11.38v-38.5h-11.67v38.5Z"/><path class="cls-1" d="M301.36,226.22l-22.42,52.62-10.73-17.81c1.6-1.08,2.96-2.34,4.08-3.79,1.12-1.45,1.99-3.07,2.59-4.86.6-1.79.91-3.68.91-5.67,0-3.33-.8-6.39-2.4-9.17-1.6-2.79-3.9-5.02-6.9-6.71-3-1.69-6.62-2.53-10.86-2.53h-17.83v58.34h11.28v-22.17h8.82l12.96,22.17h16.1l4.34-10.37h19.84l4.34,10.37h11.73l-25.73-60.41h-.13ZM263.54,250.37c-.65,1.27-1.66,2.32-3.05,3.14-1.38.82-3.18,1.23-5.38,1.23h-6.03v-16.33h6.03c1.86,0,3.49.35,4.89,1.04,1.4.69,2.51,1.64,3.31,2.85.8,1.21,1.2,2.62,1.2,4.21,0,1.3-.32,2.58-.97,3.86ZM304.73,260.97l2.53,5.96h-12.06l2.53-5.96c.69-1.6,1.32-3.15,1.88-4.67.56-1.51,1.08-3.24,1.56-5.19.52,1.99,1.07,3.73,1.65,5.22.58,1.49,1.22,3.04,1.91,4.63Z"/><polygon class="cls-1" points="145.89 238.8 158.53 238.8 158.53 286.63 170.59 286.63 170.59 238.8 183.23 238.8 183.23 228.29 145.89 228.29 145.89 238.8"/><path class="cls-1" d="M197.95,219.5v-41.92c5.24,9.75,12.79,23.91,18.03,33.67h52.86c-6.03-11.23-16.97-31.66-23.07-43.05l-19.06,10.63c-12.01-22.42-26.82-50.06-38.84-72.5-9.9,16.15-39.09,63.74-49.44,80.61,4.97,8.12,14.99,24.46,19.97,32.56h39.54ZM181.71,149.53l5.39-8.78,6.87,11.22,3.32,5.41,2.4,3.91-2.4,1.33-6.6,3.68-29.29,16.36,20.31-33.13Z"/></svg>