<?xml version="1.0" encoding="UTF-8"?><svg id="Layer_1" xmlns="http://www.w3.org/2000/svg" viewBox="0 0 396 396"><polygon points="83.74 322.56 74.87 308.13 71.22 308.13 71.22 331.69 74.67 331.69 74.62 314.38 82.18 326.61 84.94 326.61 92.22 314.59 92.17 331.69 95.86 331.69 95.86 308.13 92.28 308.13 83.74 322.56"/><path d="M115.87,308.13l-9.16,23.56h4.14l2.09-5.62h9.98l2.17,5.62h4.26l-9.39-23.56h-4.09ZM113.92,322.82l3.92-10.25,4.07,10.25h-7.99Z"/><path d="M154.28,320.42c.9-.58,1.6-1.31,2.1-2.21s.75-1.93.75-3.1c0-1.44-.33-2.68-.98-3.72-.66-1.04-1.58-1.85-2.78-2.41-1.2-.57-2.61-.85-4.25-.85h-8.9v23.56h3.77v-9.49h3.21l6.51,9.49h4.56l-7.1-10.08c1.18-.21,2.22-.61,3.11-1.19ZM143.98,319.05v-7.71h4.78c1.52,0,2.65.35,3.42,1.03.76.69,1.15,1.66,1.15,2.9s-.42,2.14-1.27,2.79c-.85.65-2.03.98-3.56.98h-4.51Z"/><polygon points="188.17 308.13 183.53 308.13 173.78 320.19 173.78 308.13 170.01 308.13 170.01 331.69 173.78 331.69 173.78 325.58 177.08 321.68 184.6 331.69 189.47 331.69 179.55 318.8 188.17 308.13"/><polygon points="204.61 320.97 214.51 320.97 214.51 317.82 204.61 317.82 204.61 311.46 216.08 311.46 216.08 308.13 200.84 308.13 200.84 331.69 216.18 331.69 216.18 328.32 204.61 328.32 204.61 320.97"/><polygon points="226.74 311.59 233.38 311.59 233.38 331.69 237.15 331.69 237.15 311.59 243.78 311.59 243.78 308.13 226.74 308.13 226.74 311.59"/><rect x="255.19" y="308.13" width="3.77" height="23.56"/><polygon points="288.04 325.24 276.14 308.13 272.54 308.13 272.54 331.69 276.22 331.69 276.22 314.37 288.11 331.69 291.71 331.69 291.71 308.13 288.04 308.13 288.04 325.24"/><path d="M316.04,322.31h5.35v5.69c-.45.22-1.04.42-1.77.6-.73.17-1.55.26-2.46.26-1.85,0-3.49-.34-4.91-1.04-1.42-.69-2.53-1.7-3.34-3.04-.81-1.34-1.21-2.95-1.21-4.85,0-1.37.21-2.6.63-3.69.42-1.09,1.02-2.02,1.81-2.78.79-.77,1.73-1.36,2.84-1.77,1.11-.41,2.35-.61,3.72-.61,1.05,0,2.08.13,3.07.4.99.27,1.92.68,2.77,1.23l1.65-2.96c-.76-.53-1.57-.95-2.42-1.26-.85-.31-1.71-.54-2.58-.67-.88-.13-1.74-.2-2.59-.2-1.84,0-3.54.29-5.09.88-1.55.58-2.91,1.42-4.06,2.5-1.15,1.08-2.04,2.38-2.68,3.89s-.96,3.19-.96,5.06.33,3.56.99,5.07c.66,1.5,1.59,2.79,2.79,3.86,1.2,1.07,2.59,1.89,4.18,2.47,1.59.57,3.33.86,5.2.86.76,0,1.64-.08,2.62-.24.98-.16,1.94-.39,2.86-.69.93-.3,1.7-.66,2.31-1.08v-11.01h-8.73v3.13Z"/><path d="M92.77,257.09c-.56,1.51-1.19,3.07-1.88,4.67l-2.53,5.96h12.06l-2.53-5.96c-.69-1.6-1.33-3.14-1.91-4.64-.58-1.49-1.13-3.23-1.65-5.22-.48,1.94-.99,3.67-1.56,5.19Z"/><path d="M260.01,240.24c-1.41-.69-3.04-1.04-4.89-1.04h-6.03v16.33h6.03c2.2,0,4-.41,5.38-1.23,1.38-.82,2.4-1.87,3.05-3.14.65-1.27.97-2.56.97-3.86,0-1.6-.4-3-1.2-4.21-.8-1.21-1.9-2.16-3.31-2.85Z"/><path d="M299.6,257.09c-.56,1.51-1.19,3.07-1.88,4.67l-2.53,5.96h12.06l-2.53-5.96c-.69-1.6-1.33-3.14-1.91-4.64s-1.13-3.23-1.65-5.22c-.48,1.94-.99,3.67-1.56,5.19Z"/><path d="M341.11,287.42l-32.75-76.88-6.95-16.3-6.94,16.3-4.09,9.6-2.76-5.15c-13.47-25.12-30.04-56.06-43.54-81.26l-13.25,7.39c-12.89-24.07-28.62-53.38-41.43-77.32-22.09,41.23-61.76,115.24-83.79,156.34l-4.09-9.59-6.95-16.31-6.94,16.3-32.75,76.88-5.52,12.96h297.27l-5.52-12.96ZM187.88,107.13c12.02,22.44,26.84,50.08,38.84,72.5l19.06-10.63c6.09,11.4,17.04,31.82,23.07,43.05h-52.86c-5.24-9.76-12.79-23.92-18.03-33.67v41.93h-39.54c-4.98-8.1-15.01-24.44-19.97-32.56,10.35-16.87,39.54-64.46,49.44-80.61ZM108.65,287.43l-4.34-10.37h-19.84l-4.34,10.37h-11.34l25.73-60.41h.13l25.73,60.41h-11.73ZM151.9,287.43h-29.56v-58.34h12.06v47.84h17.5v10.5ZM183.23,239.59h-12.64v47.84h-12.06v-47.84h-12.64v-10.5h37.34v10.5ZM230.64,267.6c0,4.41-.91,8.2-2.72,11.38-1.82,3.18-4.31,5.61-7.49,7.29-3.18,1.69-6.86,2.53-11.05,2.53s-7.76-.84-10.95-2.53c-3.2-1.69-5.72-4.09-7.55-7.23-1.84-3.13-2.75-6.88-2.75-11.25v-38.7h12.06v38.12c0,2.07.4,3.89,1.2,5.44.8,1.56,1.91,2.76,3.34,3.6,1.43.84,3.05,1.26,4.86,1.26s3.44-.41,4.86-1.23c1.43-.82,2.54-1.98,3.34-3.47.8-1.49,1.2-3.23,1.2-5.22v-38.5h11.67v38.5ZM315.49,287.43l-4.34-10.37h-19.84l-4.34,10.37h-16.1l-12.96-22.17h-8.81v22.17h-11.28v-58.34h17.83c4.23,0,7.85.84,10.86,2.53,3,1.69,5.3,3.92,6.9,6.71,1.6,2.79,2.4,5.85,2.4,9.17,0,1.99-.3,3.88-.91,5.67-.61,1.79-1.47,3.41-2.59,4.86-1.12,1.45-2.49,2.71-4.08,3.79l10.73,17.81,22.42-52.62h.13l25.73,60.41h-11.73Z"/><polygon points="197.29 163.41 199.7 162.08 197.29 158.17 193.97 152.76 187.1 141.54 181.71 150.32 161.4 183.45 190.69 167.1 197.29 163.41"/></svg>