<?xml version="1.0" encoding="UTF-8"?><svg id="Layer_1" xmlns="http://www.w3.org/2000/svg" viewBox="0 0 396 396"><defs><style>.cls-1{fill:#f3f2ef;}.cls-2{fill:#a4bde0;}.cls-3{fill:#272828;}</style></defs><path class="cls-3" d="M105.68,220.3h0s-.15.01-.15.01c0,0,0-.01.01-.01.02-.05.05-.1.08-.15l.06.15Z"/><polygon class="cls-3" points="290.46 220.31 290.31 220.31 290.33 220.3 290.39 220.16 290.46 220.3 290.46 220.31"/><path class="cls-3" d="M341.11,287.43l-32.75-76.88-6.95-16.3-6.94,16.3-4.09,9.61.07.14h0s-.15.01-.15.01h.01s.06-.15.06-.15l-2.76-5.16c-13.47-25.12-30.04-56.06-43.54-81.25l-13.25,7.38c-12.89-24.07-28.62-53.37-41.44-77.32-22.09,41.23-61.76,115.24-83.78,156.34l.06.15h0s-.15.01-.15.01c0,0,0-.01.01-.01.02-.05.05-.1.08-.15l-4.09-9.59-6.95-16.31-6.94,16.3-32.75,76.88-5.52,12.96h297.27l-5.52-12.96Z"/><polygon class="cls-3" points="83.74 322.56 74.87 308.13 71.22 308.13 71.22 331.69 74.67 331.69 74.62 314.38 82.17 326.61 84.93 326.61 92.22 314.59 92.17 331.69 95.86 331.69 95.86 308.13 92.27 308.13 83.74 322.56"/><path class="cls-3" d="M115.87,308.13l-9.16,23.56h4.14l2.09-5.62h9.98l2.17,5.62h4.26l-9.39-23.56h-4.09ZM113.91,322.82l3.92-10.25,4.07,10.25h-7.99Z"/><path class="cls-3" d="M154.27,320.42c.9-.58,1.6-1.31,2.1-2.21.5-.9.75-1.93.75-3.1,0-1.44-.33-2.68-.98-3.72-.66-1.04-1.58-1.85-2.78-2.41s-2.61-.85-4.25-.85h-8.9v23.56h3.77v-9.49h3.21l6.51,9.49h4.56l-7.1-10.08c1.18-.21,2.22-.61,3.11-1.19ZM143.97,319.05v-7.71h4.78c1.51,0,2.65.35,3.42,1.04.76.69,1.14,1.66,1.14,2.9s-.42,2.14-1.27,2.79c-.85.65-2.03.98-3.56.98h-4.51Z"/><polygon class="cls-3" points="188.17 308.13 183.52 308.13 173.78 320.19 173.78 308.13 170.01 308.13 170.01 331.69 173.78 331.69 173.78 325.58 177.08 321.68 184.6 331.69 189.46 331.69 179.55 318.8 188.17 308.13"/><polygon class="cls-3" points="204.61 320.97 214.51 320.97 214.51 317.82 204.61 317.82 204.61 311.46 216.07 311.46 216.07 308.13 200.84 308.13 200.84 331.69 216.17 331.69 216.17 328.32 204.61 328.32 204.61 320.97"/><polygon class="cls-3" points="226.74 311.59 233.37 311.59 233.37 331.69 237.14 331.69 237.14 311.59 243.77 311.59 243.77 308.13 226.74 308.13 226.74 311.59"/><rect class="cls-3" x="255.18" y="308.13" width="3.77" height="23.56"/><polygon class="cls-3" points="288.04 325.24 276.14 308.13 272.54 308.13 272.54 331.69 276.22 331.69 276.22 314.37 288.1 331.69 291.7 331.69 291.7 308.13 288.04 308.13 288.04 325.24"/><path class="cls-3" d="M316.04,322.31h5.35v5.69c-.45.22-1.04.42-1.77.6-.73.17-1.55.26-2.46.26-1.85,0-3.49-.34-4.91-1.04-1.42-.69-2.53-1.7-3.34-3.04-.81-1.34-1.21-2.95-1.21-4.85,0-1.37.21-2.6.63-3.69.42-1.09,1.02-2.02,1.81-2.79.79-.77,1.73-1.36,2.84-1.77,1.11-.41,2.35-.61,3.72-.61,1.05,0,2.08.13,3.07.4.99.27,1.92.68,2.77,1.23l1.65-2.96c-.76-.53-1.57-.95-2.42-1.26-.85-.31-1.71-.54-2.58-.67-.88-.13-1.74-.2-2.59-.2-1.84,0-3.54.29-5.09.88-1.55.58-2.91,1.42-4.06,2.5-1.15,1.08-2.04,2.38-2.68,3.89-.64,1.51-.96,3.19-.96,5.06s.33,3.56.99,5.07c.66,1.5,1.59,2.79,2.78,3.86,1.2,1.07,2.59,1.89,4.18,2.47,1.59.57,3.33.86,5.2.86.76,0,1.64-.08,2.62-.24.98-.16,1.94-.39,2.86-.69.93-.3,1.7-.66,2.31-1.08v-11.01h-8.73v3.13Z"/><path class="cls-3" d="M105.68,220.3h0s-.15.01-.15.01c0,0,0-.01.01-.01.02-.05.05-.1.08-.15l.06.15Z"/><polygon class="cls-3" points="290.46 220.31 290.31 220.31 290.33 220.3 290.39 220.16 290.46 220.3 290.46 220.31"/><path class="cls-2" d="M94.52,227.02l-25.73,60.41h11.34l4.34-10.37h19.84l4.34,10.37h11.73l-25.73-60.41h-.13ZM97.89,261.76l2.53,5.96h-12.06l2.53-5.96c.69-1.6,1.32-3.15,1.88-4.67.56-1.51,1.08-3.24,1.56-5.19.52,1.99,1.07,3.73,1.65,5.22.58,1.49,1.22,3.04,1.91,4.64Z"/><polygon class="cls-2" points="134.4 229.09 122.34 229.09 122.34 287.43 151.9 287.43 151.9 276.93 134.4 276.93 134.4 229.09"/><path class="cls-2" d="M218.97,267.6c0,1.99-.4,3.73-1.2,5.22-.8,1.49-1.91,2.65-3.34,3.47-1.43.82-3.05,1.23-4.86,1.23s-3.44-.42-4.86-1.26c-1.43-.84-2.54-2.04-3.34-3.6-.8-1.56-1.2-3.37-1.2-5.44v-38.12h-12.06v38.7c0,4.37.92,8.11,2.75,11.25,1.84,3.13,4.35,5.54,7.55,7.23,3.2,1.69,6.85,2.53,10.95,2.53s7.88-.84,11.05-2.53c3.18-1.69,5.67-4.12,7.49-7.29,1.81-3.18,2.72-6.97,2.72-11.38v-38.5h-11.67v38.5Z"/><path class="cls-2" d="M301.48,227.02h-.13l-22.42,52.62-10.73-17.81c1.6-1.08,2.96-2.34,4.08-3.79,1.12-1.45,1.99-3.07,2.59-4.86.6-1.79.91-3.68.91-5.67,0-3.33-.8-6.39-2.4-9.17-1.6-2.79-3.9-5.02-6.9-6.71-3-1.69-6.62-2.53-10.86-2.53h-17.83v58.34h11.28v-22.17h8.82l12.96,22.17h16.1l4.34-10.37h19.83l4.34,10.37h11.73l-25.73-60.41ZM263.54,251.16c-.65,1.27-1.66,2.32-3.05,3.14-1.38.82-3.18,1.23-5.38,1.23h-6.03v-16.34h6.03c1.86,0,3.49.35,4.89,1.04,1.4.69,2.51,1.64,3.31,2.85.8,1.21,1.2,2.61,1.2,4.21,0,1.3-.32,2.58-.97,3.86ZM295.2,267.72l2.53-5.96c.69-1.6,1.32-3.15,1.88-4.67.56-1.51,1.08-3.24,1.56-5.19.52,1.99,1.07,3.73,1.65,5.22.58,1.49,1.22,3.04,1.91,4.64l2.53,5.96h-12.06Z"/><polygon class="cls-2" points="145.89 239.59 158.53 239.59 158.53 287.43 170.59 287.43 170.59 239.59 183.23 239.59 183.23 229.09 145.89 229.09 145.89 239.59"/><path class="cls-3" d="M105.68,220.3h0s-.15.01-.15.01c0,0,0-.01.01-.01h.14Z"/><polygon class="cls-3" points="290.46 220.31 290.31 220.31 290.33 220.3 290.46 220.3 290.46 220.31"/><path class="cls-1" d="M215.97,212.05c-5.24-9.76-12.79-23.92-18.03-33.67v41.92h-39.54c-4.99-8.1-15-24.43-19.97-32.56,10.35-16.87,39.54-64.45,49.44-80.61,12.02,22.44,26.83,50.08,38.84,72.5l19.06-10.64c6.09,11.4,17.03,31.82,23.07,43.06h-52.87Z"/><polygon class="cls-3" points="197.29 158.17 193.97 152.76 187.09 141.54 181.7 150.32 161.39 183.45 190.69 167.1 197.29 163.41 199.69 162.08 197.29 158.17"/></svg>