<?xml version="1.0" encoding="UTF-8"?><svg id="Layer_1" xmlns="http://www.w3.org/2000/svg" viewBox="0 0 450 252"><defs><style>.cls-1{fill:#fff;}</style></defs><path class="cls-1" d="M79.46,63.31l-36.07,84.67h15.9l6.09-14.54h27.8l6.09,14.54h16.44l-36.07-84.67h-.18ZM84.18,112.01l3.54,8.36h-16.9l3.54-8.36c.97-2.24,1.85-4.42,2.63-6.54.79-2.12,1.51-4.54,2.18-7.27.73,2.79,1.5,5.22,2.32,7.31.82,2.09,1.71,4.26,2.68,6.5Z"/><polygon class="cls-1" points="135.35 66.22 118.46 66.22 118.46 147.98 159.88 147.98 159.88 133.26 135.35 133.26 135.35 66.22"/><path class="cls-1" d="M266.42,136.13c2.54-4.45,3.82-9.77,3.82-15.94v-53.96h-16.35v53.96c0,2.79-.56,5.22-1.68,7.31-1.12,2.09-2.68,3.71-4.68,4.86-2,1.15-4.27,1.73-6.81,1.73s-4.81-.59-6.81-1.77c-2-1.18-3.56-2.86-4.68-5.04-1.12-2.18-1.68-4.72-1.68-7.63v-53.42h-16.9v54.24c0,6.12,1.29,11.37,3.86,15.76,2.57,4.39,6.1,7.77,10.58,10.13,4.48,2.36,9.6,3.54,15.35,3.54s11.04-1.18,15.49-3.54c4.45-2.36,7.95-5.77,10.49-10.22Z"/><path class="cls-1" d="M369.53,63.31h-.18l-31.41,73.75-15.04-24.97c2.24-1.51,4.15-3.28,5.72-5.31,1.57-2.03,2.79-4.3,3.63-6.81.85-2.51,1.27-5.16,1.27-7.95,0-4.66-1.12-8.95-3.36-12.85-2.24-3.91-5.47-7.04-9.67-9.4-4.21-2.36-9.28-3.54-15.22-3.54h-24.98v81.76h15.81v-31.07h12.35l18.17,31.07h22.56l6.09-14.54h27.8l6.09,14.54h16.44l-36.07-84.67ZM316.34,97.15c-.91,1.79-2.33,3.26-4.27,4.41-1.94,1.15-4.45,1.73-7.54,1.73h-8.45v-22.89h8.45c2.6,0,4.89.49,6.86,1.45,1.97.97,3.51,2.3,4.63,4,1.12,1.7,1.68,3.67,1.68,5.91,0,1.82-.45,3.62-1.36,5.41ZM360.71,120.36l3.54-8.36c.97-2.24,1.85-4.42,2.63-6.54.79-2.12,1.51-4.54,2.18-7.27.73,2.79,1.5,5.22,2.32,7.31.82,2.09,1.71,4.26,2.68,6.5l3.54,8.36h-16.9Z"/><polygon class="cls-1" points="205.19 66.22 152.86 66.22 152.86 80.94 170.58 80.94 170.58 147.98 187.48 147.98 187.48 80.94 205.19 80.94 205.19 66.22"/><polygon class="cls-1" points="97.42 184.18 87.54 168.11 83.47 168.11 83.47 194.36 87.31 194.36 87.26 175.08 95.67 188.69 98.75 188.69 106.86 175.31 106.81 194.36 110.91 194.36 110.91 168.11 106.92 168.11 97.42 184.18"/><path class="cls-1" d="M133.2,168.11l-10.2,26.24h4.61l2.32-6.26h11.12l2.42,6.26h4.74l-10.46-26.24h-4.56ZM131.03,184.48l4.37-11.42,4.54,11.42h-8.9Z"/><path class="cls-1" d="M175.98,181.8c1-.64,1.78-1.46,2.33-2.46.56-1,.83-2.15.83-3.45,0-1.6-.36-2.98-1.1-4.14-.73-1.16-1.76-2.06-3.09-2.69s-2.91-.95-4.73-.95h-9.92v26.24h4.2v-10.57h3.58l7.26,10.57h5.08l-7.91-11.23c1.31-.24,2.47-.68,3.47-1.32ZM164.51,180.28v-8.59h5.32c1.69,0,2.96.38,3.81,1.15.85.77,1.27,1.85,1.27,3.23s-.47,2.39-1.41,3.11c-.94.72-2.27,1.09-3.96,1.09h-5.02Z"/><polygon class="cls-1" points="213.73 168.11 208.56 168.11 197.71 181.55 197.71 168.11 193.51 168.11 193.51 194.36 197.71 194.36 197.71 187.55 201.38 183.2 209.76 194.36 215.18 194.36 204.14 180 213.73 168.11"/><polygon class="cls-1" points="232.05 182.41 243.07 182.41 243.07 178.91 232.05 178.91 232.05 171.82 244.81 171.82 244.81 168.11 227.85 168.11 227.85 194.36 244.93 194.36 244.93 190.61 232.05 190.61 232.05 182.41"/><polygon class="cls-1" points="256.7 171.97 264.08 171.97 264.08 194.36 268.28 194.36 268.28 171.97 275.67 171.97 275.67 168.11 256.7 168.11 256.7 171.97"/><rect class="cls-1" x="288.38" y="168.11" width="4.2" height="26.24"/><polygon class="cls-1" points="324.97 187.17 311.72 168.11 307.7 168.11 307.7 194.36 311.81 194.36 311.81 175.07 325.04 194.36 329.06 194.36 329.06 168.11 324.97 168.11 324.97 187.17"/><path class="cls-1" d="M356.16,183.91h5.96v6.34c-.5.25-1.16.47-1.97.67-.81.19-1.72.29-2.74.29-2.06,0-3.88-.38-5.47-1.15-1.58-.77-2.82-1.9-3.72-3.38-.9-1.49-1.35-3.29-1.35-5.4,0-1.52.23-2.89.7-4.11.47-1.21,1.14-2.25,2.01-3.1.88-.86,1.93-1.51,3.17-1.97,1.24-.46,2.62-.68,4.14-.68,1.17,0,2.32.15,3.42.45,1.11.3,2.13.76,3.08,1.37l1.84-3.3c-.85-.59-1.75-1.06-2.69-1.41-.94-.35-1.9-.6-2.88-.75-.98-.15-1.94-.22-2.89-.22-2.05,0-3.94.33-5.67.98-1.73.65-3.24,1.58-4.52,2.78-1.28,1.21-2.28,2.65-2.99,4.33-.71,1.68-1.07,3.56-1.07,5.63s.37,3.97,1.11,5.64,1.77,3.11,3.1,4.3c1.33,1.19,2.88,2.11,4.66,2.75,1.77.64,3.71.96,5.79.96.85,0,1.82-.09,2.92-.26,1.09-.17,2.16-.43,3.19-.77,1.03-.34,1.89-.74,2.58-1.2v-12.26h-9.73v3.49Z"/></svg>