<?xml version="1.0" encoding="UTF-8"?><svg id="Layer_1" xmlns="http://www.w3.org/2000/svg" viewBox="0 0 450 396"><defs><style>.cls-1{fill:#fff;}</style></defs><path class="cls-1" d="M263.06,100.88l-10.25,5.72-34.47-64.35-74.92,139.83h163.14l-43.51-81.19ZM219.34,134.9l-22.67,12.65,15.71-25.63,4.17-6.79,5.32,8.68,2.57,4.19,1.86,3.03-1.86,1.03-5.11,2.85ZM224.96,143.63l5.01,9.34v.02l.5.95.71,1.32,6.08,11.35,1.65,3.08h40.9l-1.65-3.08-6.42-11.96-9.78-18.27-14.75,8.23-4.95-9.23-1.44-2.69-4.24-7.92-11.64-21.72-.45-.84-2.38-4.43-4.96-9.27-11.61,18.93-26.64,43.44,7.86,12.83,7.6,12.36h-40.92l19.08-35.6,36.25-67.64,7.68-14.31,1.89-3.54,1.89,3.54,4.72,8.81,2.43,4.52,4.96,9.26,2.38,4.43,12.64,23.6,3.04,5.67,10.25-5.72,11.56,21.57,1.96,3.65.57,1.05,6.94,12.94,9.8,18.29,1.65,3.08,1.23,2.29,2.2,4.11h-71.59v-32.44Z"/><polygon class="cls-1" points="97.92 317.45 88.05 301.37 83.98 301.37 83.98 327.62 87.82 327.62 87.77 308.34 96.18 321.96 99.26 321.96 107.37 308.58 107.32 327.62 111.42 327.62 111.42 301.37 107.43 301.37 97.92 317.45"/><path class="cls-1" d="M133.71,301.37l-10.2,26.24h4.61l2.32-6.26h11.12l2.42,6.26h4.74l-10.46-26.24h-4.56ZM131.53,317.74l4.37-11.42,4.54,11.42h-8.9Z"/><path class="cls-1" d="M176.49,315.07c1-.64,1.78-1.47,2.33-2.46.56-1,.83-2.15.83-3.45,0-1.6-.37-2.98-1.1-4.14-.73-1.16-1.76-2.06-3.09-2.69-1.33-.63-2.91-.95-4.73-.95h-9.92v26.24h4.2v-10.57h3.58l7.25,10.57h5.08l-7.91-11.23c1.31-.24,2.47-.68,3.47-1.32ZM165.01,313.54v-8.58h5.32c1.69,0,2.96.38,3.81,1.15.85.77,1.28,1.85,1.28,3.23s-.47,2.39-1.42,3.11c-.94.73-2.27,1.09-3.96,1.09h-5.02Z"/><polygon class="cls-1" points="214.24 301.37 209.07 301.37 198.21 314.81 198.21 301.37 194.01 301.37 194.01 327.62 198.21 327.62 198.21 320.81 201.89 316.46 210.27 327.62 215.68 327.62 204.64 313.26 214.24 301.37"/><polygon class="cls-1" points="232.55 315.68 243.58 315.68 243.58 312.17 232.55 312.17 232.55 305.09 245.32 305.09 245.32 301.37 228.36 301.37 228.36 327.62 245.43 327.62 245.43 323.87 232.55 323.87 232.55 315.68"/><polygon class="cls-1" points="257.2 305.24 264.59 305.24 264.59 327.62 268.79 327.62 268.79 305.24 276.17 305.24 276.17 301.37 257.2 301.37 257.2 305.24"/><rect class="cls-1" x="288.89" y="301.37" width="4.2" height="26.24"/><polygon class="cls-1" points="325.48 320.44 312.22 301.37 308.21 301.37 308.21 327.62 312.32 327.62 312.32 308.33 325.55 327.62 329.56 327.62 329.56 301.37 325.48 301.37 325.48 320.44"/><path class="cls-1" d="M356.67,313.69v3.49h5.96v6.34c-.5.25-1.16.47-1.97.67-.81.19-1.72.29-2.74.29-2.06,0-3.88-.38-5.46-1.15s-2.82-1.9-3.72-3.38c-.9-1.49-1.35-3.29-1.35-5.4,0-1.53.23-2.89.7-4.11.47-1.21,1.14-2.25,2.02-3.1.88-.86,1.93-1.51,3.17-1.97,1.24-.45,2.62-.68,4.14-.68,1.17,0,2.32.15,3.42.45,1.11.3,2.13.76,3.08,1.37l1.84-3.3c-.85-.59-1.75-1.06-2.69-1.41-.94-.35-1.9-.6-2.88-.75-.98-.15-1.94-.23-2.89-.23-2.05,0-3.94.33-5.67.98-1.73.65-3.24,1.58-4.52,2.78-1.28,1.21-2.28,2.65-2.99,4.33-.71,1.68-1.07,3.56-1.07,5.63s.37,3.97,1.11,5.64c.74,1.67,1.77,3.11,3.1,4.3,1.33,1.19,2.88,2.11,4.66,2.75,1.77.64,3.71.96,5.79.96.85,0,1.82-.09,2.92-.26,1.09-.18,2.16-.43,3.19-.77,1.03-.34,1.89-.74,2.58-1.2v-12.26h-9.73Z"/><path class="cls-1" d="M79.97,196.59l-36.07,84.67h15.9l6.09-14.54h27.8l6.09,14.54h16.44l-36.07-84.67h-.18ZM84.7,245.28l3.54,8.36h-16.9l3.54-8.36c.97-2.24,1.85-4.42,2.63-6.54.79-2.12,1.51-4.54,2.18-7.27.73,2.79,1.5,5.22,2.32,7.31.82,2.09,1.71,4.26,2.68,6.5Z"/><polygon class="cls-1" points="135.86 199.5 118.97 199.5 118.97 281.26 160.39 281.26 160.39 266.54 135.86 266.54 135.86 199.5"/><path class="cls-1" d="M254.39,253.46c0,2.79-.56,5.22-1.68,7.31-1.12,2.09-2.68,3.71-4.68,4.86-2,1.15-4.27,1.73-6.81,1.73s-4.81-.59-6.81-1.77c-2-1.18-3.56-2.86-4.68-5.04-1.12-2.18-1.68-4.72-1.68-7.63v-53.42h-16.9v54.23c0,6.12,1.29,11.37,3.86,15.76,2.57,4.39,6.1,7.77,10.58,10.13,4.48,2.36,9.6,3.54,15.35,3.54s11.04-1.18,15.49-3.54c4.45-2.36,7.95-5.77,10.49-10.22,2.54-4.45,3.82-9.77,3.82-15.94v-53.96h-16.35v53.96Z"/><path class="cls-1" d="M370.03,196.59h-.18l-31.41,73.75-15.04-24.96c2.24-1.51,4.15-3.28,5.72-5.31,1.57-2.03,2.78-4.3,3.63-6.81.85-2.51,1.27-5.16,1.27-7.95,0-4.66-1.12-8.95-3.36-12.85-2.24-3.91-5.47-7.04-9.67-9.4-4.21-2.36-9.28-3.54-15.22-3.54h-24.98v81.76h15.81v-31.07h12.35l18.17,31.07h22.56l6.09-14.54h27.8l6.09,14.54h16.44l-36.07-84.67ZM316.85,230.43c-.91,1.79-2.33,3.26-4.27,4.41-1.94,1.15-4.45,1.73-7.54,1.73h-8.45v-22.89h8.45c2.6,0,4.89.49,6.86,1.45,1.97.97,3.51,2.3,4.63,4,1.12,1.7,1.68,3.66,1.68,5.91,0,1.82-.45,3.62-1.36,5.41ZM361.22,253.64l3.54-8.36c.97-2.24,1.85-4.42,2.63-6.54.79-2.12,1.51-4.54,2.18-7.27.73,2.79,1.5,5.22,2.32,7.31.82,2.09,1.71,4.26,2.68,6.5l3.54,8.36h-16.9Z"/><polygon class="cls-1" points="153.37 214.22 171.09 214.22 171.09 281.26 187.99 281.26 187.99 214.22 205.7 214.22 205.7 199.5 153.37 199.5 153.37 214.22"/></svg>