<?xml version="1.0" encoding="UTF-8"?><svg id="Layer_1" xmlns="http://www.w3.org/2000/svg" viewBox="0 0 450 396"><path d="M79.97,192.59l-36.07,84.67h15.9l6.09-14.54h27.8l6.09,14.54h16.44l-36.07-84.67h-.18ZM84.69,241.29l3.54,8.36h-16.9l3.54-8.36c.97-2.24,1.85-4.42,2.63-6.54.79-2.12,1.51-4.54,2.18-7.27.73,2.79,1.5,5.22,2.32,7.31s1.71,4.26,2.68,6.5Z"/><polygon points="135.86 195.5 118.96 195.5 118.96 277.26 160.39 277.26 160.39 262.54 135.86 262.54 135.86 195.5"/><path d="M266.93,265.41c2.54-4.45,3.82-9.77,3.82-15.94v-53.96h-16.35v53.96c0,2.79-.56,5.22-1.68,7.31-1.12,2.09-2.68,3.71-4.68,4.86-2,1.15-4.27,1.73-6.81,1.73s-4.81-.59-6.81-1.77-3.56-2.86-4.68-5.04c-1.12-2.18-1.68-4.72-1.68-7.63v-53.42h-16.9v54.24c0,6.12,1.29,11.37,3.86,15.76,2.57,4.39,6.1,7.77,10.58,10.13,4.48,2.36,9.6,3.54,15.35,3.54s11.04-1.18,15.49-3.54c4.45-2.36,7.95-5.77,10.49-10.22Z"/><path d="M370.03,192.59h-.18l-31.41,73.75-15.04-24.97c2.24-1.51,4.15-3.28,5.72-5.31,1.57-2.03,2.78-4.3,3.63-6.81.85-2.51,1.27-5.16,1.27-7.95,0-4.66-1.12-8.95-3.36-12.85-2.24-3.91-5.47-7.04-9.68-9.4-4.21-2.36-9.28-3.54-15.22-3.54h-24.98v81.76h15.81v-31.07h12.35l18.17,31.07h22.56l6.09-14.54h27.8l6.09,14.54h16.44l-36.07-84.67ZM316.85,226.43c-.91,1.79-2.33,3.26-4.27,4.41-1.94,1.15-4.45,1.73-7.54,1.73h-8.45v-22.89h8.45c2.6,0,4.89.49,6.86,1.45,1.97.97,3.51,2.3,4.63,4,1.12,1.7,1.68,3.67,1.68,5.91,0,1.82-.45,3.62-1.36,5.41ZM361.22,249.64l3.54-8.36c.97-2.24,1.85-4.42,2.63-6.54.79-2.12,1.51-4.54,2.18-7.27.73,2.79,1.5,5.22,2.32,7.31.82,2.09,1.71,4.26,2.68,6.5l3.54,8.36h-16.9Z"/><polygon points="205.7 195.5 153.37 195.5 153.37 210.22 171.09 210.22 171.09 277.26 187.99 277.26 187.99 210.22 205.7 210.22 205.7 195.5"/><polygon points="186.77 164.51 178.91 151.68 205.56 108.24 217.17 89.31 222.13 98.58 224.51 103.01 224.96 103.85 236.6 125.57 240.84 133.49 242.27 136.18 247.22 145.4 261.97 137.18 271.75 155.45 278.17 167.41 279.82 170.49 238.91 170.49 237.26 167.41 231.18 156.06 230.47 154.74 229.97 153.79 229.97 153.78 224.96 144.44 224.96 176.88 296.55 176.88 294.35 172.77 293.12 170.49 291.47 167.41 281.68 149.12 274.74 136.18 274.17 135.13 272.22 131.48 260.66 109.9 250.41 115.62 247.37 109.95 234.72 86.35 232.35 81.92 227.38 72.66 224.96 68.14 220.24 59.33 218.35 55.79 216.46 59.33 208.78 73.64 172.53 141.28 153.45 176.88 194.37 176.88 186.77 164.51"/><polygon points="224.45 128.8 221.88 124.62 216.56 115.94 212.39 122.73 196.68 148.36 219.34 135.71 224.45 132.86 226.31 131.83 224.45 128.8"/><polygon points="97.92 313.46 88.05 297.39 83.98 297.39 83.98 323.64 87.82 323.64 87.77 304.36 96.18 317.97 99.26 317.97 107.37 304.59 107.32 323.64 111.42 323.64 111.42 297.39 107.43 297.39 97.92 313.46"/><path d="M133.71,297.39l-10.2,26.24h4.61l2.32-6.26h11.12l2.42,6.26h4.74l-10.46-26.24h-4.56ZM131.54,313.76l4.37-11.42,4.54,11.42h-8.9Z"/><path d="M176.49,311.08c1-.64,1.78-1.46,2.33-2.46s.83-2.15.83-3.45c0-1.6-.36-2.98-1.1-4.14-.73-1.16-1.76-2.06-3.09-2.69s-2.91-.95-4.73-.95h-9.92v26.24h4.2v-10.57h3.58l7.26,10.57h5.08l-7.91-11.23c1.31-.24,2.47-.68,3.47-1.32ZM165.01,309.56v-8.59h5.32c1.69,0,2.96.38,3.81,1.15.85.77,1.27,1.85,1.27,3.23s-.47,2.39-1.41,3.11c-.94.72-2.27,1.09-3.97,1.09h-5.02Z"/><polygon points="214.24 297.39 209.07 297.39 198.21 310.83 198.21 297.39 194.01 297.39 194.01 323.64 198.21 323.64 198.21 316.83 201.89 312.48 210.27 323.64 215.68 323.64 204.64 309.28 214.24 297.39"/><polygon points="232.55 311.69 243.58 311.69 243.58 308.19 232.55 308.19 232.55 301.1 245.32 301.1 245.32 297.39 228.36 297.39 228.36 323.64 245.43 323.64 245.43 319.89 232.55 319.89 232.55 311.69"/><polygon points="257.2 301.25 264.59 301.25 264.59 323.64 268.79 323.64 268.79 301.25 276.17 301.25 276.17 297.39 257.2 297.39 257.2 301.25"/><rect x="288.89" y="297.39" width="4.2" height="26.24"/><polygon points="325.48 316.46 312.22 297.39 308.21 297.39 308.21 323.64 312.32 323.64 312.32 304.35 325.55 323.64 329.56 323.64 329.56 297.39 325.48 297.39 325.48 316.46"/><path d="M356.67,313.19h5.96v6.34c-.5.25-1.16.47-1.97.67-.81.19-1.72.29-2.74.29-2.06,0-3.88-.38-5.47-1.15-1.58-.77-2.82-1.9-3.72-3.38-.9-1.49-1.35-3.29-1.35-5.4,0-1.52.23-2.89.7-4.11.47-1.21,1.14-2.25,2.01-3.1.88-.86,1.93-1.51,3.17-1.97s2.62-.68,4.14-.68c1.17,0,2.32.15,3.42.45,1.11.3,2.13.76,3.08,1.37l1.84-3.3c-.85-.59-1.75-1.06-2.69-1.41-.94-.35-1.9-.6-2.88-.75-.98-.15-1.94-.22-2.89-.22-2.05,0-3.94.33-5.67.98s-3.24,1.58-4.52,2.78c-1.28,1.21-2.28,2.65-2.99,4.33s-1.07,3.56-1.07,5.63.37,3.97,1.11,5.64,1.77,3.11,3.1,4.3c1.33,1.19,2.88,2.11,4.66,2.75s3.71.96,5.79.96c.85,0,1.82-.09,2.91-.26s2.16-.43,3.19-.77c1.03-.34,1.89-.74,2.58-1.2v-12.26h-9.73v3.49Z"/></svg>