<?xml version="1.0" encoding="UTF-8"?><svg id="Layer_1" xmlns="http://www.w3.org/2000/svg" viewBox="0 0 252 252"><defs><style>.cls-1{fill:#fff;}</style></defs><path class="cls-1" d="M220.91,194.45c-8.22-15.33-17.6-32.83-26.73-49.87l-19.7-36.76-13.25,7.38c-4.7-8.77-9.7-18.1-14.75-27.52-8.17-15.24-16.46-30.7-23.8-44.41l-5.29-9.88L23.51,208.6h204.97l-7.57-14.14ZM118.69,149.39l-29.29,16.35,20.31-33.12,5.39-8.78,6.87,11.21,3.32,5.41,2.4,3.91-2.4,1.33-6.6,3.68ZM125.95,202.6v-41.93c5.24,9.75,12.79,23.91,18.03,33.67h52.86c-6.03-11.23-16.97-31.65-23.07-43.05l-19.06,10.63c-12.01-22.42-26.82-50.05-38.84-72.49-9.9,16.15-39.08,63.73-49.43,80.61,4.97,8.12,14.99,24.47,19.97,32.56h-52.88c22.01-41.07,61.75-115.21,83.87-156.49,12.82,23.95,28.54,53.25,41.43,77.32l13.25-7.39c13.5,25.19,30.07,56.13,43.54,81.25l2.84,5.31h-92.52Z"/></svg>