<?xml version="1.0" encoding="UTF-8"?><svg id="Layer_1" xmlns="http://www.w3.org/2000/svg" viewBox="0 0 252 252"><path d="M215.62,193.93c-13.47-25.12-30.04-56.06-43.54-81.25l-13.25,7.39c-12.89-24.07-28.62-53.37-41.43-77.32-22.12,41.28-61.86,115.42-83.87,156.49h52.88c-4.98-8.1-15.01-24.44-19.97-32.56,10.35-16.87,39.54-64.45,49.43-80.61,12.02,22.44,26.83,50.07,38.84,72.49l19.06-10.63c6.09,11.4,17.03,31.82,23.07,43.05h-52.86c-5.24-9.76-12.79-23.92-18.03-33.67v41.93h92.52l-2.84-5.31Z"/><polygon points="125.29 137.11 121.97 131.7 115.1 120.48 109.71 129.27 89.4 162.39 118.69 146.04 125.29 142.35 127.7 141.02 125.29 137.11"/></svg>